<svg xmlns="http://www.w3.org/2000/svg" xmlns:xlink="http://www.w3.org/1999/xlink" width="248" height="67"><defs><path id="a" d="M27.4 0v10.5c0 14.1-21.6 22-27.4 23.9V0h27.4Z"/><path id="c" d="M28.4.7 28.3 30H1V.7z"/></defs><g fill="none" fill-rule="evenodd"><g transform="translate(30.2 32)"><path fill="#1F294A" d="M27.4 0v10.5c0 14.1-21.6 22-27.4 23.9V0h27.4Z"/><mask id="b" fill="#fff"><use xlink:href="#a"/></mask><use xlink:href="#a" fill="#1F294A"/><path stroke="#FFFFFE" stroke-width=".7" d="M0 12.2c3.4 0 3.4 3.2 6.9 3.2 3.4 0 3.4-3.2 6.9-3.2 3.4 0 3.4 3.2 6.9 3.2 3.4 0 3.4-3.2 6.9-3.2M0 5.4c3.4 0 3.4 3.1 6.9 3.1 3.4 0 3.4-3.1 6.9-3.1 3.4 0 3.4 3.1 6.9 3.1 3.4 0 3.4-3.1 6.9-3.1M0 19.1c3.4 0 3.4 3.2 6.9 3.2 3.4 0 3.4-3.2 6.9-3.2 3.4 0 3.4 3.2 6.9 3.2 3.4 0 3.4-3.2 6.9-3.2" mask="url(#b)"/></g><path fill="#28834A" d="M27.4 32v34.4C21.6 64.5 0 56.6 0 42.5V32h27.4Z"/><g fill="#FFFFFE"><path d="M21 55.5c0 .2-.2.3-.4.3a.4.4 0 0 1-.3-.4l.7-14.6c0-.2.2-.3.4-.3s.4.1.3.3L21 55.5ZM10.5 39.2l1.4.2c.5 0 1 .5.8 1l-.7 5c0 .6-.5 1-1 .8L9.5 46a1 1 0 0 1-.8-1l.7-5c0-.5.6-.9 1.1-.8M15.9 34.5a2 2 0 1 1 0 4 2 2 0 0 1 0-4"/><path d="M12.6 45.5c-.2 1 0 1.8.8 2.5l2.7 2.2.3 4.4c0 .7.6 1.2 1.3 1.2.7 0 1.2-.7 1.2-1.4l-.4-4.6c0-.5-.2-1-.6-1.3L16.3 47c-.3-.3-.4-.5-.4-1l.4-3 .7 1c.2.2.6.4.9.4h3.3c.6.1 1-.4 1-1 0-.5-.4-1-1-1h-2.8l-2-2.8c-.4-.3-.7-.5-1.2-.6-1-.1-1.8.5-2 1.4l-.6 5Z"/><path d="M11.4 55.7c.6.2 1.3-.1 1.5-.8l2.1-6.4-1.5-1.3-.5-.5-2.5 7.5c-.2.6.2 1.3.9 1.5"/></g><g transform="translate(29.2 -.7)"><path fill="#CC2240" d="M28.4.7 28.3 30H1V.7z"/><mask id="d" fill="#fff"><use xlink:href="#c"/></mask><path fill="#FFFFFE" d="M46 29c-.3.4-.7.6-1.1.4l-.7-.4a.8.8 0 0 1-.3-.4h-.6l-.7-.3a.7.7 0 0 1-.2-.3 1 1 0 0 1-1 0l-.8-.4a1 1 0 0 1-.4-.5 1 1 0 0 1-.8 0l-.8-.5a1 1 0 0 1-.5-.5 1 1 0 0 1-.7 0l-.8-.5a1 1 0 0 1-.3-.2c-.4.2-.9.2-1.3 0l-1.2-.6c-.3-.1-.6-.4-.7-.7h-1l-.2-.2-1.5 2.9c0 .1-.2.1-.4 0-.2 0-.3-.2-.2-.3l1.4-3H31l-.7-.7-1-.1-.2-.2-1.6 3.4c-.1.1-.3.2-.5 0-.2 0-.3-.2-.2-.3l1.7-3.4-.3-.1c-.3-.2-.6-.5-.7-.8h-1l-.3-.2-2 4s-.2.1-.4 0c-.2 0-.3-.3-.2-.4l2-4h-.3c-.3-.2-.6-.5-.7-.8h-1l-.2-.2-2.2 4.4c0 .2-.3.3-.5.2-.1-.1-.2-.3-.1-.5l2.1-4.4-.2-.1c-.4-.2-.6-.5-.7-.8h-1l-.3-.2-2.4 5c-.1.1-.4.2-.5.1a.4.4 0 0 1-.2-.5l2.4-5h-.2l-.7-.8a4 4 0 0 1-2.4 1.1c-2.2 0-5.6-1.3-8.8-3.8-2.5-2-4.5-4-5.5-6 0 .2 0 0 .2-.1.1 0 .3 0 .4.2 1.6 1.8 4.4 3.9 5.5 4.5 1.2.6 6.8 3 8.9 3 0 0 .5 0 .8-.6.3-.5 0-1 0-1a32.8 32.8 0 0 0-8-5.3c-1.7-.8-4.3-1.9-6.6-2-.2 0-.4-.2-.5-.3l.1-.3c2-.3 4.8.3 7.8 1.1 1.8.5 3.8.5 5.2 1.2 1.7.7 2.7 2.2 3.4 3.1.7 1 1 2.2.6 3.4l.8.1.1.1.4-.7c.1-.2.4-.3.6-.2.2.1.3.4.2.6l-.4.7.2.1c.4.2.6.5.7.8h1l.2.1.4-.7c0-.2.3-.3.6-.2.2.1.3.4.2.6l-.4.7.2.1c.4.2.6.4.7.8h1l.1.1.4-.7a.4.4 0 1 1 .8.4l-.4.7.2.1c.4.2.6.5.7.8h1.1l.2.2.3-.8a.4.4 0 0 1 .8.4l-.4.7.3.2c.3.1.5.4.6.6l1 .1.1.1.4-.7c0-.2.3-.3.5-.2.2.1.3.4.2.6l-.3.7.2.1c.3.2.6.5.7.8h1l.2.1.3-.7c.1-.2.4-.3.6-.2.2.1.3.4.2.6l-.4.7.3.1c.3.2.5.5.6.8h.6l.1.1.3-.5a.3.3 0 0 1 .5.3l-.2.5h.2c.2.2.4.4.4.6h.8v.1l.3-.5c.1-.1.3-.2.5-.1.1 0 .2.2 0 .4l-.2.5h.2l.5.6h.7l.1.1.3-.5c0-.1.2-.2.4-.1.2 0 .2.2.1.4l-.2.5h.1c.3.2.5.4.5.6l.5.1h.1l.2-.4a.2.2 0 0 1 .4.3l-.2.4h.2c.2.1.3.3.3.4h.6l.1.1.2-.4a.2.2 0 1 1 .4.2l-.2.4.2.1c.3.2.5.6.3 1" mask="url(#d)"/></g><path fill="#E8AC57" d="M27.4 0v29.3H0V0z"/><path fill="#FFFFFE" d="M17 4.3v2.3h-6.6V4.3H8v24.9h11.4v-25z"/><path fill="#E8AC57" d="M10.5 9.3c-.4 0-.7.2-.7.6v3H11v-3c0-.4-.2-.6-.5-.6M13.7 9.3c-.3 0-.6.2-.6.6v3h1.2v-3c0-.4-.2-.6-.6-.6M17 9.3c-.3 0-.6.2-.6.6v3h1.2v-3c0-.4-.3-.6-.6-.6"/><g fill="#1A1919" fill-rule="nonzero"><path d="m69.4 14.3.4-.6L79.3 4h4l-9.6 9.9L83.8 27h-4l-8.4-11.2-2 1.9.1 9.3h-3.2V3.9h3.2v9.3l-.1 1.1ZM90.4 4V27h-3.2V3.9h3.1Zm8.9 0v20H111V27H96.1V3.9h3.2ZM125.5 15c1.3.5 2.4 1.2 3.1 2.2.8 1 1.2 2 1.2 3.3a6 6 0 0 1-1 3.7c-.8 1-1.7 1.7-2.9 2.1-1.2.5-2.4.7-3.8.7h-6.9V3.9h6a9 9 0 0 1 5.5 1.4c1.3 1 2 2.4 2 4.4a5.6 5.6 0 0 1-3.1 5.3Zm-7.2-1h3.5c1.2 0 2.1-.4 2.7-1 .6-.7 1-1.6 1-2.7s-.4-2-1.1-2.6c-.8-.6-1.8-.9-3-.9h-3V14ZM122 24c1.3 0 2.4-.3 3.3-.9a3 3 0 0 0 1.3-2.7c0-1.2-.5-2-1.4-2.7-1-.5-2.1-.8-3.5-.8h-3.4V24h3.7Zm24.9 2.9-5.4-8.5h-4.2V27h-3.1V3.9h6.1c1.6 0 3 .2 4.3.8 1.2.6 2.2 1.4 2.9 2.4a8.3 8.3 0 0 1 .1 7.8 6.1 6.1 0 0 1-3 2.8l6 9.3h-3.7Zm-6.3-11.5c1.7 0 2.9-.5 3.6-1.3.8-1 1.1-2 1.1-3 0-.7-.1-1.4-.4-2a4 4 0 0 0-1.5-1.7c-.7-.4-1.5-.7-2.6-.7h-3.5v8.7h3.3Zm17-11.6V27h-3.2V3.9h3.1Zm19.4 0v3h-6.2V27h-3.1V6.8h-6v-3H177Zm17.8 0v3h-6.2V27h-3.1V6.8h-6v-3h15.3Zm14.4 17h-8.9l-2.5 6.1h-3l10-24.1h.3L215 27h-3.5l-2.4-6Zm-1-2.7-3.4-8.4-3.4 8.4h6.7ZM221.7 4V27h-3.2V3.9h3.2Zm26 0v23.9h-.2l-17-17.3.1 16.5h-3.1V3.2h.1l17 17.4V3.9h3ZM80.3 33.4V38h-5.7V57h-4.7V38h-5.5v-4.6h16ZM97.5 57l-5-7.5h-3V57h-4.7V33.4h7.1c3 0 5.2.8 6.8 2.2a7.3 7.3 0 0 1 2.4 5.8c0 1.4-.3 2.8-.9 4a6.8 6.8 0 0 1-2.8 3L103 57h-5.4Zm-8-12h3.2c1.3 0 2.2-.3 2.8-1 .6-.8.8-1.6.8-2.5 0-.8-.2-1.6-.7-2.4-.5-.8-1.4-1.2-2.8-1.2h-3.4V45Zm28.9 7.4h-7.8l-2 4.6h-4.5l10.6-24.5h.3L125.6 57h-5.4l-1.8-4.6Zm-1.5-4-2.3-5.6-2.4 5.7h4.7Zm16.8-15V57H129V33.4h4.7Zm10.7 0v19.1h11V57h-15.7V33.4h4.7Zm28.4 5.7c-2-1-3.8-1.7-5.3-1.7a4 4 0 0 0-2.4.7c-.6.4-.9 1-.9 1.8 0 .7.5 1.4 1.3 2 .8.5 1.9 1 3.3 1.6 1 .4 2 .8 2.8 1.4.8.5 1.5 1.2 2 2.1.5 1 .8 2.1.8 3.5a6.4 6.4 0 0 1-3.8 5.8c-1.2.7-2.6 1-4.3 1a14.5 14.5 0 0 1-8-2.6l2-3.6a11.1 11.1 0 0 0 5.6 2 5 5 0 0 0 2.5-.6c.8-.4 1.1-1 1.1-2 0-1.2-1.1-2.3-3.4-3.2l-3.4-1.5a7 7 0 0 1-2.3-2.1c-.6-1-1-2-1-3.5 0-2 .7-3.6 2-4.9 1.4-1.2 3.2-1.9 5.4-2 1.7 0 3.2.2 4.4.6 1.1.4 2.3 1 3.4 1.7l-1.8 3.5Z"/></g></g></svg>