<svg xmlns="http://www.w3.org/2000/svg" width="193" height="77"><g fill="none" fill-rule="evenodd"><path fill="#9AA09B" d="M188.8 42.8h3.9V2.5h-3.9zM84.4 13c-8 0-14.6 6.5-14.8 14.6v27.2h3.9V37.9a14.8 14.8 0 1 0 11-24.8m-.2 25.8a11 11 0 1 1 0-22 11 11 0 0 1 0 22"/><path fill="#9AA09B" d="M114 13a14.8 14.8 0 1 0 0 29.7 14.8 14.8 0 0 0 0-29.7m0 25.8a11 11 0 1 1 0-22 11 11 0 0 1 0 22M188 28.2V28a14.8 14.8 0 1 0-3.8 10v4.8h3.8V28.2M173.3 39a11 11 0 1 1 0-22 11 11 0 0 1 0 22"/><path fill="#9AA09B" d="M143.5 38.9a11 11 0 1 1 0-22 11 11 0 0 1 0 22m.1-25.8c-4.3 0-8.2 1.9-11 4.8V2.5h-3.8V28a14.8 14.8 0 1 0 14.8-14.8"/><path fill="#A5295D" d="M31.2 22.2a3.2 3.2 0 1 1 0-6.4 3.2 3.2 0 0 1 0 6.4m-7 14.7a4.8 4.8 0 1 1 0-9.7 4.8 4.8 0 0 1 0 9.7m-6.4-15a3.2 3.2 0 1 1 6.4 0 3.2 3.2 0 0 1-6.4 0M10.4 32a4 4 0 1 1 0-8 4 4 0 0 1 0 8M37 9a2.4 2.4 0 1 1 0 4.9A2.4 2.4 0 0 1 37 9m5.2 5.6a2.8 2.8 0 1 1 0 5.7 2.8 2.8 0 0 1 0-5.7m3.3-7.9a2 2 0 1 1 0 4 2 2 0 0 1 0-4m3.8 5.6a2.4 2.4 0 1 1 0 4.8 2.4 2.4 0 0 1 0-4.8m-.3 14a3.2 3.2 0 1 1 0-6.3 3.2 3.2 0 0 1 0 6.4m-11.6 4a4 4 0 1 1 0-8 4 4 0 0 1 0 8M34 36.1a3.6 3.6 0 1 1 7.3 0v18.1c1.5-.7 3-1.6 4.3-2.6v-20a3.6 3.6 0 1 1 7.2 0v12.6a28.3 28.3 0 0 0-10-40.6c.2.2.2.4.2.7a1.6 1.6 0 1 1-1.8-1.6A28.5 28.5 0 0 0 7 46.5l-.1-7.4a3.6 3.6 0 1 1 7.3 0v13.7c2 1.2 4 2.2 6.3 2.9V42.5a3.6 3.6 0 1 1 7.3 0V57H29c1.7 0 3.3-.1 4.9-.4V36.1M188.2 69.6c0 1.2 1 1.4 1.7 1.7.6.2 1 .3 1 .8s-.4.8-1.1.8c-.5 0-1 0-1.3-.2h-.1l-.1 1 1.4.3c1.5 0 2.5-.8 2.5-2s-.9-1.5-1.6-1.7c-.6-.2-1-.3-1-.8 0-.7.5-.8 1-.8.4 0 .7 0 1 .2h.2v-1l-1.1-.2c-1.5 0-2.5.7-2.5 1.9Zm-3.4-1c.4 0 .7.2.9.4.2.2.3.6.3 1h-2.5c.2-.8.6-1.3 1.3-1.3Zm-2.6 2.3c0 2 1 3 2.8 3 .7 0 1.4 0 2-.3h.1l-.2-1a4 4 0 0 1-1.7.3c-.6 0-1-.1-1.3-.4-.3-.3-.5-.9-.5-1.5v-.1h3.8v-.6c0-1.6-.8-2.6-2.3-2.6-1.7 0-2.7 1.3-2.7 3.2Zm-1.4-3h-1.2v6h1.3v-6h-.1Zm-1.3-1.8c0 .4.3.7.7.7.5 0 .8-.3.8-.7 0-.5-.3-.8-.8-.8-.4 0-.7.3-.7.8Zm-2.9-.5-1 .4v1.8h-1.3v1h1.2v3.3c0 1.3.5 1.8 1.7 1.8l1.2-.1-.1-1h-.8c-.6 0-.8-.1-.8-1v-3h1.7v-1h-1.7v-2.2Zm-3.2 2.2h-1.2v6h1.2v-6Zm-1.4-1.7c0 .4.4.7.8.7.5 0 .8-.3.8-.7 0-.5-.3-.8-.8-.8-.4 0-.8.3-.8.8Zm-5.4 2.8v-1h-1.1v6h1.2v-3c0-1.2.7-2.1 1.6-2.1.6 0 .9.3.9 1.2v3.8h1.2v-4.1c0-1.3-.6-2-1.8-2-1 0-1.6.5-2 1.2Zm-3-1h-1.2v2.8c0 1.3-.7 2.2-1.6 2.2-.6 0-.9-.4-.9-1.2v-3.9h-1.2V72c0 1.3.6 2 1.8 2 1 0 1.6-.5 2-1.2v1h1.1v-6Zm-10.5 1c-.1-.6-.6-1.2-1.6-1.2s-1.6.5-2 1.2v-1h-1.1v6h1.2v-3c0-1.2.7-2.1 1.6-2.1.6 0 .8.3.8 1.2v3.8h1.2V71c0-1.4.8-2.2 1.6-2.2.6 0 .9.3.9 1.2v3.8h1.2v-4c0-1.4-.6-2-1.8-2-1.2 0-1.8.7-2 1.1Zm-10.3 0c-.2-.6-.6-1.2-1.7-1.2-.8 0-1.5.5-2 1.2l.2-1H138v6h1.2v-3c0-1.2.7-2.1 1.5-2.1.7 0 .9.3.9 1.2v3.8h1.2V71c0-1.4.8-2.2 1.6-2.2.6 0 .8.3.8 1.2v3.8h1.3v-4c0-1.4-.7-2-1.9-2-1.1 0-1.7.7-2 1.1Zm-10.4 1.9c0-1.5.8-2 1.6-2 1.2 0 1.5 1 1.5 2 0 1.5-.8 2-1.5 2-1.3 0-1.6-1-1.6-2Zm-1.3 0c0 2 1 3.2 2.7 3.2 1.7 0 3-1.4 3-3.3 0-2.6-1.7-3-2.8-3-1.7 0-2.9 1.3-2.9 3.2Zm-5 .2c0 2.4 1.5 3 2.7 3a5 5 0 0 0 1.8-.4l-.1-1h-.1c-.4.2-.9.2-1.3.2-1.1 0-1.6-.6-1.6-2 0-1.2.6-2 1.5-2 .5 0 1 0 1.3.3h.1l.3-1-.1-.1c-.4-.2-1-.3-1.5-.3-1.8 0-3 1.3-3 3.3Zm-7.4-1c0-.8.5-1.3 1.3-1.3s1.2.4 1.2 1.2c0 .7-.5 1.2-1.3 1.2s-1.2-.4-1.2-1.2Zm-.2 4.8c0-.4.2-.7.7-1H120.6c.8 0 1.1.3 1.1.9 0 .7-.6 1.1-1.7 1.1-1 0-1.5-.4-1.5-1Zm-1-4.8c0 .7.3 1.2.8 1.6-.4.2-.6.6-.6 1s.2.7.5.9c-.6.3-1 1-1 1.5 0 1.2 1 1.9 2.6 1.9 1.8 0 3.2-1 3.2-2.4 0-1-.7-1.7-2-1.7h-1.1c-.8-.1-1-.2-1-.4s.2-.4.4-.5l.6.1c1.5 0 2.5-.8 2.5-2.2 0-.4-.1-.7-.4-1h1v-1h-3c-1.7 0-2.5 1.1-2.5 2.2Zm-5.3-1v-1.2H111v6h1.3V71c0-1.3.6-2.2 1.5-2.2.7 0 1 .3 1 1.2v3.8h1.2v-4.1c0-1.3-.7-2-1.9-2-.8 0-1.5.5-2 1.2Zm-3-1.2H108v6h1.2v-6Zm-1.4-1.7c0 .4.4.7.8.7s.8-.3.8-.7c0-.5-.4-.8-.8-.8s-.8.3-.8.8Zm-2.8-.5-1.1.4v1.8h-1.2v1h1.2v3.3c0 1.3.4 1.8 1.6 1.8l1.3-.1-.1-1h-.9c-.5 0-.7-.1-.7-1v-3h1.6v-1h-1.6v-2.2h-.1Zm-4.6 3.2v-1h-1.1v6h1.2v-2.4c0-1.1.2-1.9.6-2.2.3-.3.7-.3 1.1-.3h.1v-1.2c-.9 0-1.5.4-2 1.1Zm-6.8 2c0-1.5.8-2 1.6-2 1.2 0 1.5 1 1.5 2 0 1.5-.8 2-1.5 2-1.3 0-1.6-1-1.6-2Zm-1.3 0c0 2 1 3.2 2.7 3.2 1.7 0 3-1.4 3-3.3 0-2.6-1.7-3-2.8-3-1.7 0-2.9 1.3-2.9 3.2Zm-4.8.1c0-.9.5-2.1 1.5-2.1.8 0 1.2.6 1.2 1.9 0 1.5-.5 2.2-1.7 2.2l-1-.1v-1.9Zm0-2v-1h-1.2v8.8h1.2V74h1c1.9 0 3-1.2 3-3.3 0-1.9-.8-2.9-2.2-2.9a2 2 0 0 0-1.9 1.2Zm-6.5 2c0-.9.4-2.1 1.5-2.1.8 0 1.2.6 1.2 1.9 0 1.5-.6 2.2-1.8 2.2l-1-.1v-1.9Zm-.1-2v-1h-1.2v8.8H81V74h.9c2 0 3-1.2 3-3.3 0-1.9-.7-2.9-2.2-2.9A2 2 0 0 0 81 69Zm-3-1h-1.2v2.8c0 1.3-.7 2.2-1.6 2.2-.6 0-.9-.4-.9-1.2v-3.9H73V72c0 1.3.6 2 1.8 2 1 0 1.6-.5 2-1.2v1H78v-6Zm-10.3 1.7c0 1.2.9 1.4 1.6 1.7.7.2 1.1.3 1.1.8s-.5.8-1.2.8c-.4 0-.9 0-1.2-.2h-.1l-.2 1 1.4.3c1.6 0 2.6-.8 2.6-2s-1-1.5-1.7-1.7c-.5-.2-1-.3-1-.8 0-.7.5-.8 1-.8.4 0 .8 0 1.1.2h.1l.1-1-1.2-.2c-1.5 0-2.4.7-2.4 1.9Zm-5.3-4L61 66v1.8H60v1h1.2v3.3c0 1.3.5 1.8 1.7 1.8l1.3-.1-.2-1h-.8c-.5 0-.7-.1-.7-1v-3H64v-1h-1.6v-2.2h-.1Zm-7 3.3.2-1H54.3v6h1.2v-3c0-1.2.7-2.1 1.6-2.1.6 0 .9.3.9 1.2v3.8h1.2v-4.1c0-1.3-.6-2-1.8-2-1 0-1.6.5-2 1.2Zm-4.9-.2c.4 0 .7 0 .9.3.2.2.3.6.3 1h-2.5c.2-.8.7-1.3 1.3-1.3Zm-2.6 2.2c0 2 1 3 2.8 3 .7 0 1.5 0 2-.3h.1l-.2-1a4 4 0 0 1-1.7.3c-.6 0-1-.1-1.3-.4-.3-.3-.4-.9-.4-1.5v-.1h3.8v-.6c0-1.6-.9-2.6-2.4-2.6-1.7 0-2.7 1.3-2.7 3.2Zm-5.1-2c-.2-.6-.6-1.2-1.7-1.2-.8 0-1.5.5-1.9 1.2v-1H38v6h1.2v-3c0-1.2.7-2.1 1.6-2.1.6 0 .8.3.8 1.2v3.8h1.2V71c0-1.4.8-2.2 1.6-2.2.6 0 .8.3.8 1.2v3.8h1.3v-4c0-1.4-.6-2-1.8-2-1.2 0-1.8.7-2 1.1Zm-10.4 0 .1-1h-1.2v6h1.3v-3c0-1.2.6-2.1 1.5-2.1.7 0 1 .3 1 1.2v3.8h1.2v-4.1c0-1.3-.7-2-1.9-2-.9 0-1.5.5-2 1.2Zm-4.1-.1v-1H27v6h1.2v-2.4c0-1.1.2-1.9.6-2.2.3-.3.7-.3 1.1-.3h.1v-1.2c-1.1 0-1.7.6-2 1.1Zm-5-.1c.4 0 .7 0 .9.3.2.2.3.6.3 1H22c.2-.8.6-1.3 1.3-1.3Zm-2.6 2.2c0 2 1 3 2.8 3 .7 0 1.4 0 2-.3h.1l-.2-1a4 4 0 0 1-1.7.3c-.6 0-1-.1-1.3-.4-.3-.3-.5-.9-.5-1.5v-.1h3.8v-.6c0-1.6-.8-2.6-2.3-2.6-1.7 0-2.7 1.3-2.7 3.2Zm-.3-3H19l-1.3 3.5-.3.8-.2-.8-1.3-3.6h-1.4l2.3 6H18l2.3-6h-.1ZM10 70.7c0-1.5.9-2 1.6-2 1.2 0 1.5 1 1.5 2 0 1.5-.8 2-1.5 2-1.3 0-1.6-1-1.6-2Zm-1.3 0c0 2 1 3.2 2.7 3.2 1.8 0 3-1.4 3-3.3 0-2.6-1.7-3-2.7-3-1.8 0-3 1.3-3 3.2ZM3.8 70c0-.7.6-1.2 1.3-1.2.8 0 1.3.4 1.3 1.2 0 .7-.5 1.2-1.3 1.2s-1.3-.4-1.3-1.2Zm-.1 5c0-.5.2-.8.7-1.1H5.8c.7 0 1.1.3 1.1.9 0 .7-.7 1.1-1.7 1.1s-1.5-.4-1.5-1Zm-1-4.9c0 .7.2 1.2.7 1.6-.3.2-.6.6-.6 1s.2.7.6.9c-.6.3-1 1-1 1.5 0 1.2 1 1.9 2.6 1.9 1.8 0 3.2-1 3.2-2.4 0-1-.8-1.7-2-1.7H5c-.7-.1-.9-.2-.9-.4s.1-.4.3-.5l.6.1c1.6 0 2.6-.8 2.6-2.2 0-.4-.2-.7-.4-1h.9v-1H5c-1.7 0-2.5 1.1-2.5 2.2Z"/></g></svg>