<svg xmlns="http://www.w3.org/2000/svg" xmlns:xlink="http://www.w3.org/1999/xlink" width="600" height="600"><defs><path id="a" d="M238.2 0v91.5C238.1 214 50 282.7 0 299V0h238.2Z"/><path id="c" d="m246.6 6.4-.1 254.2H8.3V6.4z"/></defs><g fill="none" fill-rule="evenodd"><path fill="none" d="M0 0h600v600H0z"/><g transform="translate(311.5 284.9)"><path fill="#1F294A" d="M238.2 0v91.5C238.1 214 50 282.7 0 299V0h238.2Z"/><mask id="b" fill="#fff"><use xlink:href="#a"/></mask><use xlink:href="#a" fill="#1F294A"/><path fill="#FFFFFE" fill-rule="nonzero" d="M0 111.5c6.2 0 11 1.2 15.4 3.6 3.5 2 5.9 3.9 11.2 8.8 6 5.4 8.8 7.7 13.1 10.1 6 3.3 12.4 5 20.2 5 7.8 0 14.3-1.7 20.2-5 4.4-2.4 7.2-4.7 13.1-10.1 5.4-4.9 7.8-6.9 11.2-8.8 4.4-2.4 9.3-3.6 15.4-3.6s11 1.2 15.4 3.6c3.4 2 5.8 4 11.2 8.8 5.9 5.4 8.7 7.7 13.1 10.2 5.9 3.2 12.4 4.9 20.2 4.9 7.8 0 14.3-1.7 20.2-5 4.3-2.3 7.2-4.7 13.1-10v-.1c5.3-4.9 7.8-6.9 11.2-8.8 4.4-2.4 9.3-3.6 15.4-3.6v-10c-7.8 0-14.3 1.6-20.2 4.9a62.6 62.6 0 0 0-13.1 10.1 54.7 54.7 0 0 1-11.2 8.8 30.6 30.6 0 0 1-15.4 3.7c-6.1 0-11-1.3-15.4-3.7a54.8 54.8 0 0 1-11.2-8.8 62.6 62.6 0 0 0-13.1-10.1c-5.9-3.3-12.4-5-20.2-5-7.8 0-14.3 1.7-20.2 5a62.6 62.6 0 0 0-13.1 10.1 54.7 54.7 0 0 1-11.2 8.8 30.6 30.6 0 0 1-15.4 3.7c-6 0-11-1.3-15.3-3.7a54.7 54.7 0 0 1-11.2-8.8 62.6 62.6 0 0 0-13.2-10.1c-5.8-3.3-12.4-5-20.1-5v10ZM0 51.6c6.2 0 11 1.3 15.4 3.7 3.5 2 5.9 3.9 11.2 8.8 6 5.4 8.8 7.7 13.1 10.1 6 3.3 12.4 5 20.2 5 7.8 0 14.3-1.7 20.2-5 4.4-2.4 7.2-4.7 13.1-10.1 5.4-5 7.8-6.9 11.2-8.8 4.4-2.4 9.3-3.7 15.4-3.7s11 1.3 15.4 3.7c3.4 2 5.8 3.9 11.2 8.8 5.9 5.4 8.7 7.7 13.1 10.1 5.9 3.3 12.4 5 20.2 5 7.8 0 14.3-1.7 20.2-5 4.3-2.4 7.2-4.7 13.1-10.1 5.3-5 7.8-6.9 11.2-8.8 4.4-2.4 9.3-3.7 15.4-3.7v-10c-7.8 0-14.3 1.7-20.2 5a62.6 62.6 0 0 0-13.1 10.1 54.7 54.7 0 0 1-11.2 8.8 30.6 30.6 0 0 1-15.4 3.7c-6.1 0-11-1.3-15.4-3.7a54.8 54.8 0 0 1-11.2-8.8A62.6 62.6 0 0 0 140 46.6c-5.9-3.3-12.4-5-20.2-5-7.8 0-14.3 1.7-20.2 5a62.6 62.6 0 0 0-13.1 10.1 54.7 54.7 0 0 1-11.2 8.8 30.6 30.6 0 0 1-15.4 3.7c-6 0-11-1.3-15.3-3.7a54.7 54.7 0 0 1-11.2-8.8 62.6 62.6 0 0 0-13.2-10.1c-5.8-3.3-12.4-5-20.1-5v10ZM0 171.3c6.2 0 11 1.2 15.4 3.7 3.5 1.8 5.9 3.8 11.2 8.7 6 5.4 8.8 7.8 13.1 10.2 6 3.2 12.4 4.9 20.2 4.9 7.8 0 14.3-1.7 20.2-5 4.4-2.3 7.2-4.7 13.1-10 5.4-5 7.8-7 11.2-8.8 4.4-2.5 9.3-3.7 15.4-3.7s11 1.2 15.4 3.7c3.4 1.8 5.8 3.8 11.2 8.7 5.9 5.4 8.7 7.8 13.1 10.2 5.9 3.2 12.4 4.9 20.2 4.9 7.8 0 14.3-1.7 20.2-5 4.3-2.3 7.2-4.7 13.1-10 5.3-5 7.8-7 11.2-8.8 4.4-2.5 9.3-3.7 15.4-3.7v-10c-7.8 0-14.3 1.7-20.2 4.9a62.6 62.6 0 0 0-13.1 10.1 54.7 54.7 0 0 1-11.2 8.8 30.6 30.6 0 0 1-15.4 3.7c-6.1 0-11-1.3-15.4-3.7a54.8 54.8 0 0 1-11.2-8.7 62.6 62.6 0 0 0-13.1-10.2c-5.9-3.2-12.4-5-20.2-5-7.8 0-14.3 1.8-20.2 5a62.6 62.6 0 0 0-13.1 10.1 54.7 54.7 0 0 1-11.2 8.8 30.6 30.6 0 0 1-15.4 3.7c-6 0-11-1.3-15.3-3.7a54.7 54.7 0 0 1-11.2-8.8 62.6 62.6 0 0 0-13.2-10.1c-5.8-3.2-12.4-5-20.1-5v10Z" mask="url(#b)"/></g><path fill="#28834A" d="M287.2 284.9v298.8C237 567.6 49 498.8 49 376.4V285h238.2Z"/><g fill="#FFFFFE"><path d="M231.4 488.7c-.1 1.7-1.6 3-3.3 3-1.7-.2-3-1.7-3-3.3l6.7-127.1a3 3 0 0 1 3.3-3 3 3 0 0 1 3 3.3l-6.7 127ZM140.3 347l12.3 1.8c4.6.7 7.8 5 7.2 9.5l-6 43.1c-.7 4.6-5 7.8-9.6 7.2l-12.3-1.7c-4.6-.7-7.8-5-7.1-9.5l6-43.2c.7-4.5 5-7.8 9.5-7.1M187 306.4a17.4 17.4 0 1 1 0 35 17.4 17.4 0 0 1 0-35"/><path d="M158.4 402c-1.3 9.5.5 15.5 7.5 21.5l22.7 19.5 2.9 38.5a11 11 0 0 0 11.7 10 11 11 0 0 0 10-11.6l-3-40.9c-.3-4-2.5-8.3-5.6-11l-14-12.1c-3-2.6-3.7-4.3-3.1-8.2l3.6-25.8 6 7.6c1.6 2.2 4.5 3.7 7.3 3.7l29 1a9 9 0 0 0 9.3-8.9 9 9 0 0 0-8.8-9.3l-25-.7-18.2-23.3c-2.2-3-5.6-5-9.5-5.6-8-1.1-15.6 4.5-16.7 12.6l-6 43Z"/><path d="M147.7 491a11 11 0 0 0 13.7-7l18-55.8-13.3-11.4c-1.7-1.5-3.2-3-4.4-4.6l-21 65.2a11 11 0 0 0 7 13.7"/></g><g transform="translate(303.2)"><path fill="#CC2240" d="m246.6 6.4-.1 254.2H8.3V6.4z"/><mask id="d" fill="#fff"><use xlink:href="#c"/></mask><path fill="#FFFFFE" d="M399.3 252.4a6.6 6.6 0 0 1-8.8 3l-5.8-2.8a6.6 6.6 0 0 1-3.2-3.7c-1.6.5-3.4.4-5-.4l-5.7-2.8c-1-.5-1.8-1.3-2.4-2.2a8.2 8.2 0 0 1-7.6.2l-7.3-3.6c-2-1-3.5-2.7-4.2-4.7-2 .6-4.2.6-6.3-.4l-7.3-3.7c-2-1-3.5-2.7-4.2-4.7-2 .7-4.2.6-6.3-.4l-7.3-3.7c-1-.4-1.9-1.1-2.6-1.9-3.2 2-7.4 2.3-11.1.5l-10.2-5a11.6 11.6 0 0 1-5.8-6.7c-2.8 1-6 .8-8.9-.6l-2.3-1.1-12.4 25.2c-.5 1-2.2 1.3-3.8.5-1.5-.7-2.4-2.2-1.8-3.3l12.4-25.2-2.3-1.1a11.5 11.5 0 0 1-5.5-6c-2.6.7-5.5.5-8.1-.7l-2.3-1.2-14.4 29.3c-.6 1.2-2.3 1.5-3.9.7-1.5-.8-2.3-2.3-1.8-3.5l14.5-29.3-2.3-1c-3-1.6-5-4.2-6-7.3-3 1.2-6.3 1.2-9.3-.3l-2.3-1.2-16.8 34.2c-.7 1.3-2.5 1.7-4 1-1.6-.8-2.3-2.5-1.7-3.8l16.9-34.1-2.3-1.1a11.6 11.6 0 0 1-5.7-6.4c-2.7.9-5.7.7-8.4-.6l-2.3-1.1-19 38.4c-.7 1.5-2.5 2-4 1.2-1.7-.8-2.3-2.5-1.6-4l19-38.4-2.3-1.1c-3-1.5-5-4-6-7-2.8 1.1-6 1-9-.4l-2.2-1.2-21.3 43.2a3.1 3.1 0 0 1-4.2 1.4 3.2 3.2 0 0 1-1.5-4.2l21.3-43.1-2.2-1.2a11.6 11.6 0 0 1-5.7-6.2 35 35 0 0 1-21.4 9.8v-.2c-18.7.5-48.2-11.8-76.7-33.5a175.2 175.2 0 0 1-47.2-51c.4.7-.3-1.6 1-2 1.5-.5 3 .6 4 1.7A235.7 235.7 0 0 0 72.6 113c9.7 5.1 58.3 26.7 77 26.3 0 0 4-.2 6.6-5 2.5-5 .2-8.5.2-8.5-13-15.4-53.5-39.1-68.9-46.4C72 72 49.6 62.9 29.3 61.7c-1.1-.1-3.2-1.3-3.7-2.6s1-2.3.6-2.3C44 54 67.4 59.2 93.8 66.4c15.8 4.4 33.1 4.2 45.5 9.8 14.6 6.6 23.4 19.2 29.4 27.4 6 8.4 8 19.2 5.2 29.4 2.3-.3 4.6 0 6.8 1.1l1.4.8 3-6.3c1-1.8 3.2-2.6 5.1-1.7 1.9 1 2.6 3.2 1.7 5l-3 6.3 2 1c2.9 1.4 5 4 5.9 6.8 2.8-1 6-.9 9 .6l1.4.6 3-6.2c1-1.8 3.3-2.6 5.1-1.7 2 1 2.7 3.2 1.8 5l-3.1 6.3 2 1c2.7 1.3 4.7 3.6 5.7 6.3 2.7-.9 5.7-.7 8.4.6l1.4.7 3.1-6.2a3.8 3.8 0 1 1 6.8 3.4l-3 6.2 1.9 1c3 1.5 5 4.1 6 7.2 3-1.2 6.3-1.2 9.3.3l1.4.7 3.1-6.2a3.8 3.8 0 0 1 6.8 3.4l-3 6.2 1.9 1c2.6 1.3 4.5 3.4 5.6 6 2.6-.8 5.4-.6 8 .7l1.5.7 3-6.2c1-2 3.2-2.7 5-1.7 2 .9 2.7 3.1 1.8 5l-3 6.2 2 1c2.8 1.4 4.8 3.9 5.8 6.7 2.8-1 6-.9 8.8.6l1.4.7 3.1-6.3c1-1.8 3.2-2.6 5-1.7 2 1 2.7 3.2 1.8 5l-3 6.3 2 1c2.8 1.4 4.8 3.8 5.8 6.7 1.6-.3 3.3-.2 5 .6l1 .5 2.1-4.5a2.7 2.7 0 0 1 5 2.4l-2.3 4.5 1.4.7c2 1 3.5 2.7 4.2 4.7 2-.6 4.3-.6 6.3.5l1 .5 2.3-4.5c.6-1.4 2.2-2 3.6-1.3 1.3.7 2 2.3 1.2 3.7l-2.2 4.5 1.4.7c2 1 3.5 2.7 4.2 4.7 2-.7 4.3-.6 6.3.4l1 .5 2.2-4.4c.7-1.4 2.3-2 3.7-1.3 1.3.7 1.9 2.3 1.2 3.7l-2.2 4.4 1.4.8c2.1 1 3.6 2.7 4.3 4.7 1.3-.2 2.8-.2 4.1.5l.8.4 1.7-3.5a2.1 2.1 0 0 1 3.9 1.9l-1.7 3.5 1 .5c1.7.8 2.8 2.2 3.3 3.7 1.6-.5 3.3-.4 5 .4l.7.3 1.8-3.5a2.1 2.1 0 1 1 3.8 2l-1.7 3.4 1.1.6a6.6 6.6 0 0 1 3 8.8" mask="url(#d)"/></g><path fill="#E8AC57" d="M287.2 6.4v254.2H49.1L49 6.4z"/><path fill="#FFFFFE" d="M196.4 43.8v20h-56.2v-20h-21.3v216.8h98.8V43.8z"/><path fill="#E8AC57" d="M140 87h-.5a5 5 0 0 0-5 5.1v27H145V92a5 5 0 0 0-5-5M168.5 87h-.5a5 5 0 0 0-5 5.1v27h10.5V92a5 5 0 0 0-5-5M197 87h-.4a5 5 0 0 0-5 5.1v27H202V92a5 5 0 0 0-5-5"/></g></svg>